<?xml version="1.0" encoding="UTF-8" standalone="no"?>
<!-- Created with Inkscape (http://www.inkscape.org/) -->

<svg
   width="58.640213mm"
   height="112.66568mm"
   viewBox="0 0 58.640212 112.66568"
   version="1.1"
   id="svg1"
   inkscape:version="1.3 (0e150ed6c4, 2023-07-21)"
   sodipodi:docname="Mouse_Left.svg"
   inkscape:export-filename="Mouse_Left.png"
   inkscape:export-xdpi="96"
   inkscape:export-ydpi="96"
   xmlns:inkscape="http://www.inkscape.org/namespaces/inkscape"
   xmlns:sodipodi="http://sodipodi.sourceforge.net/DTD/sodipodi-0.dtd"
   xmlns="http://www.w3.org/2000/svg"
   xmlns:svg="http://www.w3.org/2000/svg">
  <sodipodi:namedview
     id="namedview1"
     pagecolor="#505050"
     bordercolor="#eeeeee"
     borderopacity="1"
     inkscape:showpageshadow="0"
     inkscape:pageopacity="0"
     inkscape:pagecheckerboard="0"
     inkscape:deskcolor="#505050"
     inkscape:document-units="mm"
     inkscape:zoom="1.0242632"
     inkscape:cx="103.48903"
     inkscape:cy="245.54236"
     inkscape:window-width="1920"
     inkscape:window-height="1009"
     inkscape:window-x="1912"
     inkscape:window-y="-8"
     inkscape:window-maximized="1"
     inkscape:current-layer="g12" />
  <defs
     id="defs1" />
  <g
     inkscape:label="Layer 1"
     inkscape:groupmode="layer"
     id="layer1"
     transform="translate(71.122207,-46.488752)">
    <g
       id="g12">
      <rect
         style="opacity:0.998192;fill:none;stroke:#ffffff;stroke-width:1.90428;stroke-linecap:round;stroke-dasharray:none"
         id="rect9"
         width="56.735931"
         height="85.139915"
         x="-70.170067"
         y="73.062378"
         ry="25.283974" />
      <rect
         style="opacity:0.998192;fill:none;stroke:#ffffff;stroke-width:1.6;stroke-linecap:round;stroke-dasharray:none"
         id="rect10"
         width="7.6203151"
         height="21.569365"
         x="-45.612259"
         y="80.372238"
         ry="3.8101575" />
      <path
         id="rect11"
         style="opacity:0.998192;fill:#f9f9f9;stroke:#ffffff;stroke-width:1.782;stroke-linecap:round;stroke-dasharray:none"
         d="m -50.054001,80.938565 0,26.035105 c 0,2.95753 -2.380972,5.3385 -5.338503,5.3385 h -6.34833 c -2.957531,0 -5.294135,-2.3813 -5.338503,-5.3385 l -0.129158,-8.608596 c -0.125153,-8.34166 7.303165,-16.962676 12.750176,-20.060904 3.70871,-2.153274 4.440806,-1.0885 4.404318,2.634395 z"
         sodipodi:nodetypes="cssssscc" />
      <path
         style="opacity:0.998192;fill:none;stroke:#ffffff;stroke-width:2.3;stroke-linecap:round;stroke-dasharray:none"
         d="m -41.771769,72.571409 c 0,0 -1.882503,-15.361754 4.01845,-16.256456 5.900952,-0.894702 5.572725,11.961588 12.146678,12.146678 6.573954,0.18509 7.488932,-20.822879 7.488932,-20.822879"
         id="path12"
         sodipodi:nodetypes="czzc" />
      <path
         id="path13"
         style="opacity:0.998192;fill:none;stroke:#ffffff;stroke-width:1.782;stroke-linecap:round;stroke-dasharray:none"
         d="m -33.382668,80.938565 v 26.035105 c 0,2.95753 2.380972,5.3385 5.338503,5.3385 h 6.34833 c 2.957531,0 5.294135,-2.3813 5.338503,-5.3385 l 0.129158,-8.608596 c 0.125153,-8.34166 -7.303165,-16.962676 -12.750176,-20.060904 -3.70871,-2.153274 -4.440806,-1.0885 -4.404318,2.634395 z"
         sodipodi:nodetypes="cssssscc" />
    </g>
  </g>
</svg>
